<svg width="1000" height="1000" viewBox="0 0 1000 1000" fill="none" xmlns="http://www.w3.org/2000/svg">
<path d="M420.5 45.8993C469.695 17.4967 530.305 17.4967 579.5 45.8993L853.513 204.101C902.707 232.503 933.013 284.993 933.013 341.799V658.201C933.013 715.007 902.707 767.497 853.513 795.899L579.5 954.101C530.305 982.503 469.695 982.503 420.5 954.101L146.487 795.899C97.2925 767.497 66.9873 715.007 66.9873 658.201V341.799C66.9873 284.993 97.2925 232.503 146.487 204.101L420.5 45.8993Z" fill="#FF8F72"/>
<path d="M443.999 676.067C394.179 676.067 344.349 676.147 294.529 676.027C272.669 675.977 256.439 663.117 251.969 642.557C249.719 632.217 251.419 622.337 256.719 613.167C321.529 501.007 386.359 388.857 451.179 276.697C456.929 266.747 462.409 256.637 468.459 246.877C471.949 241.257 475.759 235.617 480.429 230.997C494.079 217.487 512.329 217.697 525.669 231.467C530.119 236.067 534.109 241.457 537.039 247.137C548.079 268.597 558.619 290.317 569.299 311.957C573.629 320.717 571.659 325.147 562.249 327.987C546.729 332.667 531.689 338.387 518.179 347.617C495.379 363.197 484.639 385.107 483.609 412.357C481.979 455.567 500.889 487.887 535.719 512.037C556.649 526.557 579.749 536.857 602.729 547.477C611.789 551.667 620.819 555.977 629.529 560.817C650.509 572.467 659.359 590.717 656.449 614.257C653.669 636.737 642.939 654.837 623.789 667.367C614.819 673.237 604.809 676.017 593.979 676.007C543.989 675.937 493.999 675.977 444.009 675.977C443.999 676.007 443.999 676.037 443.999 676.067Z" fill="white"/>
<path d="M690.579 487.097C689.989 499.017 678.179 508.757 667.729 504.117C644.829 493.957 620.869 485.697 600.429 470.617C580.419 455.857 573.289 431.497 582.499 408.867C588.859 393.247 601.269 384.157 617.189 379.877C624.739 377.847 631.729 382.077 636.679 390.607C645.359 405.577 653.949 420.597 662.589 435.587C670.569 449.427 678.639 463.217 686.479 477.127C688.229 480.227 689.229 483.767 690.579 487.097Z" fill="white"/>
</svg>
